<?xml version="1.0" encoding="utf-8"?>
<!-- Generator: Adobe Illustrator 25.2.3, SVG Export Plug-In . SVG Version: 6.00 Build 0)  -->
<svg version="1.1" id="Layer_1" xmlns="http://www.w3.org/2000/svg" xmlns:xlink="http://www.w3.org/1999/xlink" x="0px" y="0px"
	 viewBox="0 0 64 64" style="enable-background:new 0 0 64 64;" xml:space="preserve">
<style type="text/css">
	.st0{fill-rule:evenodd;clip-rule:evenodd;fill:#007E3E;}
	.st1{fill:#FFFFFF;stroke:#FFFFFF;stroke-width:1.1339;stroke-miterlimit:10;}
</style>
<g id="SVGRepo_bgCarrier">
</g>
<g id="SVGRepo_tracerCarrier">
</g>
<circle class="st0" cx="32" cy="32" r="32"/>
<g id="SVGRepo_iconCarrier">
	<path class="st1" d="M49.8,21.2h-4.9v-6.7c0-2-1.6-3.7-3.6-3.7H22.7c-2,0-3.6,1.7-3.6,3.7v6.7h-4.9c-2,0-3.6,1.7-3.6,3.7v20
		c0,2,1.6,3.7,3.6,3.7h35.6c2,0,3.6-1.7,3.6-3.7v-20C53.4,22.8,51.8,21.2,49.8,21.2z M22.7,14.5h18.7v6.7H22.7V14.5z M49.8,44.8
		H14.2v-5.5h35.6V44.8z M44.3,24.9h5.5v10.8H14.2V24.9h5.5h3.6l6.3,3.9c1.5,0.9,3.5,0.9,5,0l6.3-3.9H44.3z"/>
</g>
</svg>
